<?xml version="1.0" encoding="UTF-8" standalone="no"?>
<svg
   width="1541.088"
   height="1438.3635"
   overflow="hidden"
   version="1.1"
   id="svg15"
   sodipodi:docname="belmath_logo.svg"
   xml:space="preserve"
   inkscape:export-filename="..\Рабочая папка\GitHub\belmath.org\Рабочая папка\GitHub\belmath.org\img\logo.svg"
   inkscape:export-xdpi="48.038467"
   inkscape:export-ydpi="48.038467"
   inkscape:version="1.4.2 (f4327f4, 2025-05-13)"
   xmlns:inkscape="http://www.inkscape.org/namespaces/inkscape"
   xmlns:sodipodi="http://sodipodi.sourceforge.net/DTD/sodipodi-0.dtd"
   xmlns="http://www.w3.org/2000/svg"
   xmlns:svg="http://www.w3.org/2000/svg"
   xmlns:ns1="http://www.iki.fi/pav/software/textext/"><sodipodi:namedview
     id="namedview15"
     pagecolor="#ffffff"
     bordercolor="#000000"
     borderopacity="0.25"
     inkscape:showpageshadow="2"
     inkscape:pageopacity="0.0"
     inkscape:pagecheckerboard="0"
     inkscape:deskcolor="#d1d1d1"
     inkscape:zoom="0.21486486"
     inkscape:cx="965.72327"
     inkscape:cy="1361.3208"
     inkscape:window-width="1920"
     inkscape:window-height="991"
     inkscape:window-x="-9"
     inkscape:window-y="-9"
     inkscape:window-maximized="1"
     inkscape:current-layer="svg15"
     inkscape:export-bgcolor="#ffffffff"><inkscape:page
       x="0"
       y="0"
       width="1541.088"
       height="1438.3635"
       id="page2"
       margin="0"
       bleed="0" /></sodipodi:namedview><defs
     id="defs3"><clipPath
       id="clip0"><rect
         x="891"
         y="239"
         width="2875"
         height="1997"
         id="rect1" /></clipPath><filter
       style="color-interpolation-filters:sRGB"
       inkscape:label="Drop Shadow"
       id="filter40"
       x="-0.02753602"
       y="-0.039258621"
       width="1.0915592"
       height="1.1045272"><feFlood
         result="flood"
         in="SourceGraphic"
         flood-opacity="0.498039"
         flood-color="rgb(0,0,0)"
         id="feFlood39" /><feGaussianBlur
         result="blur"
         in="SourceGraphic"
         stdDeviation="1.000000"
         id="feGaussianBlur39" /><feOffset
         result="offset"
         in="blur"
         dx="4.000000"
         dy="2.000000"
         id="feOffset39" /><feComposite
         result="comp1"
         operator="in"
         in="flood"
         in2="offset"
         id="feComposite39" /><feComposite
         result="comp2"
         operator="atop"
         in="comp1"
         in2="comp1"
         id="feComposite40" /></filter></defs><g
     id="g39"
     transform="matrix(1.67198,0,0,1.67198,-1016.0132,-1098.9451)"><g
       clip-path="url(#clip0)"
       transform="matrix(1.0262848,0,0,1.0262848,-889.45762,-283.99319)"
       id="g15"
       style="display:inline"><g
         id="g16"
         transform="matrix(4.0385981,-0.1511632,0.18666128,4.9869926,2841.2256,-84.596826)"
         inkscape:label="Belarus"
         style="display:inline;fill:#c9a24d;fill-opacity:1"><path
           style="display:inline;fill:#ffffff;fill-opacity:1;stroke:#2d2369;stroke-width:1.23751;stroke-linecap:butt;stroke-linejoin:round;stroke-dasharray:none;stroke-opacity:1;paint-order:stroke fill markers;filter:url(#filter40)"
           d="m 92.429453,28.390112 2.06702,1.850596 0.572904,-0.630392 1.741366,-0.05594 1.071062,0.193611 0.08987,0.458694 0.457281,0.451147 0.07558,0.729161 0.507466,0.590968 0.854068,0.142839 0.07875,-0.445114 2.04448,-0.863609 1.23266,0.200858 1.00874,0.592945 2.00176,0.783054 0.0609,0.596932 -0.43448,0.0735 -0.11701,0.694004 -0.44021,0.970586 0.0472,0.249698 1.48937,1.403784 1.06809,-0.917664 1.44238,-0.603763 0.88992,0.213235 0.004,-0.668288 1.10643,-0.495053 0.87139,-0.01037 1.35658,0.481762 0.87187,-0.604606 0.74337,0.513082 2.0316,0.546334 0.0106,0.630703 1.24416,0.581029 -0.0463,0.488107 0.4621,0.510934 0.80769,-0.01629 0.26575,1.027332 0.48638,0.03941 0.6165,-0.427523 0.44398,0.03745 0.42424,0.421698 -0.10784,1.27316 -0.15908,0.202937 0.22318,0.202592 -0.34289,0.474815 0.0336,0.176576 0.50455,0.512817 -0.14603,0.361102 -0.62963,0.269382 -0.64933,0.653632 -0.0553,0.662788 0.61585,0.412775 0.29388,0.06576 0.13005,0.776142 1.01165,0.973256 -0.19369,0.463998 0.3979,1.348377 -0.88797,-0.07489 0.0562,0.562757 -0.32887,0.615482 -0.73283,0.212218 -0.1803,0.20199 -0.0371,0.733635 -0.45241,0.539918 -0.12785,0.834601 1.5813,0.631165 0.981,0.744278 -0.0764,0.66184 0.71927,0.2526 1.21541,0.114303 -0.0694,0.522098 -0.44703,0.435117 -0.52347,1.096966 0.37703,0.443091 0.68776,0.113493 0.68861,0.62511 -0.0333,0.642214 0.80842,0.630484 0.0934,1.687786 1.11054,0.594516 1.38856,1.027876 0.82339,0.03398 0.65459,0.484548 0.805,0.03606 0.24465,0.682249 0.65521,-0.01167 0.15871,0.944015 -0.11946,0.773426 -0.27103,1.143301 -0.55687,0.920402 0.25681,0.161829 0.4384,-0.02566 0.59567,0.362362 2.26002,-0.623653 0.49251,0.09038 0.81291,0.567692 1.51455,0.374648 0.3354,0.485448 1.13975,0.02635 0.44634,0.663745 -0.91577,0.503109 0.0316,1.177395 0.90701,0.530893 0.66714,0.240014 0.27685,0.397578 0.68507,-0.109334 0.31029,0.574129 0.68508,-0.109333 -0.17086,1.673002 0.23271,0.430598 -1.48829,0.03825 -0.0566,0.413387 -1.53281,-0.06426 -0.0231,0.454152 0.32459,0.29467 -0.91555,1.289456 -0.67614,-0.06542 -0.50912,0.817494 -0.72025,-0.03236 -0.32171,0.475753 -0.37952,-0.052 -0.40467,0.437023 -0.62835,-0.168254 -0.83486,-0.282546 -0.86531,0.311312 -0.61761,-0.377849 -0.16409,-0.112454 -0.76085,-0.06911 -0.15806,-1.05751 -1.01506,-0.08055 -0.78886,-0.350516 -0.57233,0.394492 -1.85887,-0.188444 -0.40355,1.242382 0.14257,0.531609 -0.73108,0.177292 -0.027,0.523993 -0.52814,0.36146 1.14687,0.821761 0.0893,0.739308 -0.0106,0.209606 0.77455,0.629987 1.21794,0.264724 -0.0642,0.417294 0.0316,0.211502 0.5239,0.548726 -0.13499,0.974319 -0.82656,0.383073 0.11281,0.28518 0.43916,0.544913 0.34186,0.785642 0.65459,0.484559 -0.59857,0.07813 -0.0641,0.417295 -0.10077,0.310595 0.49048,0.372129 -0.0998,1.115967 0.31204,0.539202 -0.15053,0.44843 -0.3569,0.334127 0.57578,0.778639 0.86229,0.161226 -0.008,0.980029 0.71721,0.504877 -0.067,0.889844 -4.15398,-0.151357 -1.16195,0.29801 -0.50463,0.730167 -0.54989,-0.04218 -0.82227,-0.527079 -2.16983,0.07778 -0.23697,0.479543 0.35622,0.506183 -0.018,0.349324 -0.75906,-0.104137 -0.15227,0.48338 -0.99963,0.445321 -0.20539,0.69108 -0.46785,0.01398 -1.04085,1.248809 0.0578,0.527806 -0.43798,0.26046 0.0957,0.617043 -0.16353,0.290265 -0.45029,0.08483 -0.23818,0.917179 -0.49656,0.572964 0.0869,0.37154 -0.0401,0.36585 0.55852,0.28766 0.002,0.77045 0.36516,0.33149 -0.36048,0.40399 0.43915,0.5449 0.30486,0.67895 -0.17606,0.53482 -0.50611,0.34492 -0.19999,0.58627 -1.01689,-0.0455 -0.22637,-0.55286 -0.72027,-0.0324 -0.72408,-0.78529 0.0689,-0.92476 -0.97502,-0.44641 -0.63847,-0.79893 -0.6734,-0.11774 -1.95883,0.10471 -0.50972,0.41479 -0.45442,-0.24798 -0.53175,0.4313 -1.33283,-0.0948 -0.34186,-0.78563 -1.11417,0.19512 -0.36677,0.52625 -0.71936,-0.0497 -0.51452,0.92227 -0.79964,-0.14091 -0.78242,0.35006 -0.44989,-0.33533 -0.18314,-0.56843 -0.65277,-0.51947 0.24446,-1.03944 -0.58029,-0.69129 -0.22372,-0.605288 -0.87001,-0.424182 -0.778804,0.280188 -0.505528,0.747632 -1.226922,-0.09015 -0.695855,0.31891 -0.816467,1.01379 -6.46e-4,0.8403 -0.355093,0.29919 -0.349012,-0.6459 -0.427291,0.0508 -0.380658,-0.85741 -0.07315,-1.053699 -0.891555,-0.0047 -0.497653,-0.23242 -0.685093,0.109333 -1.111829,0.562846 -0.106098,-0.827569 -0.943981,-0.63758 -0.140781,-0.56656 -0.826545,0.383107 -0.682203,0.879755 -1.867839,-0.01375 -1.060341,-0.852883 -0.708416,0.56345 -0.09073,0.94128 -0.720967,0.80799 -0.776304,-0.59505 0.613586,-1.197943 -0.409342,-0.298482 -2.307012,-0.558677 -0.574118,0.429417 -1.820095,-0.116649 0.219719,-0.970516 -0.976283,-0.0092 -0.202891,-0.184191 0.15472,-1.358604 -1.93826,-0.297028 -1.080751,0.371677 -3.621558,-1.42298 -2.077908,-0.05825 -0.04889,-0.702453 -3.048574,-0.171847 -0.88729,-0.915168 -1.779367,-0.07987 -1.71202,-0.567009 -0.728353,0.124901 -4.500691,-0.429511 -1.009349,-0.605518 -0.492626,0.08298 -0.591374,-0.06159 -2.345035,0.595071 -1.907515,-0.06807 -0.684192,0.09188 -0.877201,-0.284452 -3.015415,0.0047 -1.155425,0.998567 -0.357588,1.174425 -3.883914,2.031619 -0.420103,-0.08887 -0.243112,-0.641152 -0.815437,-0.246671 -1.304481,-0.233588 -0.981658,0.09604 -0.487598,0.398282 0.320326,1.204855 -0.176667,0.132114 -0.907007,-0.530881 -0.0092,-1.471001 0.374844,-0.683453 -0.03629,-0.947008 1.001408,-0.480293 -0.01734,-0.490962 -0.239876,-0.290879 0.389198,-0.962911 0.06565,-0.452233 0.683983,-0.914705 -0.07512,-1.018757 -0.583526,-1.041572 -0.679694,0.0047 -0.622301,-1.113344 -0.68151,0.03941 -0.571633,-0.445817 -0.578822,-0.306077 -1.009696,-0.18536 -0.151519,-0.35694 0.109797,-0.485253 -0.41652,-0.158753 1.578011,-1.784926 0.748994,-0.526616 0.948951,-1.112882 1.480039,-0.703908 1.765855,-0.480999 1.145774,0.01652 2.144283,-1.234316 0.105058,-2.755002 -0.186214,-0.567542 0.449898,-0.574025 0.03548,-0.691611 -0.10841,-0.368996 -0.414289,-0.662313 0.630148,-1.13113 -0.327377,-0.57087 -0.227012,-0.257767 -0.02404,-0.49926 -0.407019,-0.460912 -0.171178,-1.344643 -0.256472,-0.853289 -0.582993,-1.511672 -0.186388,-1.048217 -0.390551,-1.750623 0.133409,-1.356975 -0.311417,-0.468645 0.03317,-1.201422 -0.388978,-0.611657 0.09789,-0.738361 1.00342,0.342125 0.565115,0.418484 0.375825,-0.0297 0.549431,-0.173421 0.401149,0.03247 0.40954,-0.0601 0.80967,0.05085 0.763025,-0.210346 1.513914,0.312502 0.856628,-0.30818 0.713953,0.131073 0.43864,0.601868 0.143429,0.443587 0.520872,-0.101703 0.576372,0.270446 1.970711,-0.951435 0.520977,-0.174703 0.379525,-0.160522 0.772883,0.01156 0.205423,0.335328 1.114037,-0.02855 0.226018,-0.68009 0.08021,-0.392549 -0.307267,-0.820558 0.363089,-0.266307 0.211907,-0.334115 1.168311,-0.05813 0.934133,0.522064 1.725127,-0.918439 0.376208,-0.993978 0.534198,0.123007 1.375629,0.111298 0.757084,-0.708809 0.491504,0.278431 0.255502,0.490928 0.408453,0.315924 -0.484004,0.328428 0.07038,0.283274 -0.312735,0.301095 0.433764,0.649705 1.267498,0.126889 0.484003,-0.328418 0.801431,0.105983 0.0092,-1.014967 0.36227,-0.438918 -0.479728,-0.581757 -0.377734,-0.08692 -0.09292,-0.669432 -1.119538,0.299905 -0.442685,-0.294138 -0.03941,-0.655355 0.954914,-0.814999 0.02219,-1.259499 0.574118,-0.42943 0.817575,-0.208404 0.271046,-1.143301 -0.391393,-0.647808 0.207144,-0.725995 -0.103788,-0.459838 0.12244,-0.729796 0.651691,-0.285898 0.177327,-0.972423 0.657077,-0.390689 0.35151,-0.229335 0.189219,-0.376659 1.996739,-0.01549 0.999618,-0.445333 0.883604,-1.080809 0.193149,-0.866684 0.616498,-0.427523 1.188688,0.42097 0.675569,-0.337328 0.831248,0.352411 0.326384,0.259743 0.438062,-0.260448 0.17735,-0.972435 0.491182,-0.468159 1.034787,-0.303719 0.355114,-0.299189 -0.393196,-0.61287 -0.718483,-0.06726 -0.750103,-0.278755 -0.856352,0.136655 -0.915976,-0.356225 -0.02797,-0.281354 0.494763,-0.538036 0.07639,-0.661828 0.597117,-0.463409 -0.123192,-0.495722 0.199979,-0.586254 0.759743,-0.736222 0.03652,-1.538971 0.565173,-0.254762 0.785284,0.420392 1.430481,-0.566074 0.376623,-0.71839 1.065322,-0.897577 0.969453,0.04161 0.529598,-0.147069 1.427326,1.007292 0.726931,-0.539988 0.551338,0.457283 2.068916,0.232871 0.396988,-0.680342 0.266851,-1.495734 1.527782,-0.806804 0.03907,-0.622128 1.237355,-0.59773 0.382703,-0.786036 1.066039,0.007 0.882841,-0.577595 z"
           id="path1873-1"
           sodipodi:nodetypes="cccccccccccccccccccccccccccccccccccccccccccccccccccccccccccccccccccccccccccccccccccccccccccccccccccccccccccccccccccccccccccccccccccccccccccccccccccccccccccccccccccccccccccccccccccccccccccccccccccccccccccccccccccccccccccccccccccccccccccccccccccccccccccccccccccccccccccccccccccccccccccccccccccccccccccccccccccccccccccccccccccccccccccccccccccccccccccccccccccccccccccccccccccccccccccccccccccccccccccccccccccccccccccccccccccccccccccccccccccccccccccccccccc"
           transform="matrix(1.7993362,0,0,1.7993362,-404.51289,154.67777)"
           sodipodi:insensitive="true" /><path
           style="display:inline;fill:#ffffff;fill-opacity:1;stroke:#000000;stroke-width:6.48832;stroke-linecap:butt;stroke-linejoin:round;stroke-dasharray:none;stroke-opacity:1;paint-order:stroke fill markers"
           d="m -238.20122,205.76113 3.71926,3.32984 1.03085,-1.13429 3.1333,-0.10065 1.9272,0.34837 0.16171,0.82535 0.8228,0.81176 0.136,1.31201 0.9131,1.06335 1.53675,0.25701 0.1417,-0.80091 3.67871,-1.55392 2.21797,0.36141 1.81506,1.06691 3.60184,1.40898 0.10958,1.07408 -0.78178,0.13225 -0.21054,1.24874 -0.79208,1.74641 0.0849,0.4493 2.67987,2.52588 1.92186,-1.65119 2.59532,-1.08637 1.60127,0.38368 0.007,-1.20248 1.99084,-0.89076 1.56792,-0.0187 2.44094,0.86685 1.56879,-1.08789 1.33757,0.92321 3.65553,0.98303 0.0191,1.13485 2.23866,1.04547 -0.0833,0.87827 0.83147,0.91934 1.45331,-0.0293 0.47817,1.84851 0.87516,0.0709 1.10929,-0.76925 0.79887,0.0674 0.76335,0.75877 -0.19404,2.29085 -0.28623,0.36515 0.40157,0.36453 -0.61697,0.85435 0.0605,0.31772 0.90786,0.92273 -0.26276,0.64974 -1.13291,0.48471 -1.16837,1.17611 -0.0995,1.19257 1.10812,0.74273 0.52879,0.11832 0.234,1.39654 1.8203,1.75122 -0.34851,0.83488 0.71596,2.42619 -1.59776,-0.13475 0.10112,1.01258 -0.59175,1.10746 -1.3186,0.38185 -0.32442,0.36345 -0.0668,1.32006 -0.81404,0.97149 -0.23004,1.50173 2.84529,1.13568 1.76515,1.33921 -0.13747,1.19087 1.29421,0.45451 2.18693,0.20567 -0.12488,0.93943 -0.80435,0.78292 -0.9419,1.97381 0.6784,0.79727 1.23751,0.20421 1.23904,1.12479 -0.0599,1.15556 1.45462,1.13445 0.16805,3.03689 1.99824,1.06974 2.49848,1.84949 1.48156,0.0611 1.17783,0.87187 1.44846,0.0649 0.44021,1.22759 1.17894,-0.021 0.28558,1.6986 -0.21495,1.39166 -0.48768,2.05718 -1.00199,1.65611 0.46208,0.29119 0.78883,-0.0462 1.07181,0.65201 4.06654,-1.12216 0.88619,0.16262 1.4627,1.02147 2.72518,0.67412 0.6035,0.87348 2.0508,0.0474 0.80311,1.1943 -1.64778,0.90526 0.0569,2.11853 1.63202,0.95526 1.20041,0.43186 0.49814,0.71538 1.23267,-0.19673 0.55832,1.03305 1.23269,-0.19672 -0.30743,3.01029 0.41872,0.77479 -2.67794,0.0688 -0.10184,0.74382 -2.75804,-0.11563 -0.0416,0.81717 0.58404,0.53021 -1.64738,2.32017 -1.2166,-0.11771 -0.91608,1.47094 -1.29597,-0.0582 -0.57887,0.85604 -0.68288,-0.0936 -0.72814,0.78635 -1.13061,-0.30274 -1.50219,-0.5084 -1.55699,0.56016 -1.11129,-0.67988 -0.29525,-0.20234 -1.36902,-0.12436 -0.28441,-1.90281 -1.82643,-0.14494 -1.41943,-0.63069 -1.02981,0.70982 -3.34473,-0.33907 -0.72612,2.23546 0.25653,0.95654 -1.31546,0.31901 -0.0486,0.94284 -0.95031,0.65039 2.06361,1.47862 0.16068,1.33027 -0.0191,0.37715 1.39367,1.13356 2.19149,0.47632 -0.11552,0.75086 0.0569,0.38056 0.94267,0.98734 -0.24289,1.75313 -1.48726,0.68928 0.20298,0.51313 0.7902,0.98048 0.61512,1.41364 1.17783,0.87188 -1.07703,0.14058 -0.11534,0.75086 -0.18132,0.55886 0.88254,0.66959 -0.17957,2.008 0.56146,0.9702 -0.27085,0.80688 -0.64219,0.60121 1.03603,1.40103 1.55155,0.2901 -0.0144,1.7634 1.2905,0.90844 -0.12055,1.60113 -7.47441,-0.27234 -2.09074,0.53622 -0.908,1.31382 -0.98943,-0.0759 -1.47954,-0.94839 -3.90426,0.13995 -0.42639,0.86286 0.64096,0.91079 -0.0324,0.62855 -1.3658,-0.18737 -0.27398,0.86976 -1.79868,0.80128 -0.36956,1.24349 -0.84182,0.0251 -1.87284,2.24703 0.104,0.9497 -0.78807,0.46866 0.1722,1.11026 -0.29425,0.52229 -0.81022,0.15264 -0.42857,1.65031 -0.89348,1.03095 0.15636,0.66853 -0.0721,0.65829 1.00497,0.51759 0.004,1.3863 0.65704,0.59646 -0.64862,0.72692 0.79017,0.98046 0.54855,1.22166 -0.31679,0.96232 -0.91066,0.62062 -0.35985,1.0549 -1.82973,-0.0819 -0.40731,-0.99478 -1.29601,-0.0583 -1.30287,-1.413 0.12398,-1.66395 -1.75439,-0.80325 -1.14882,-1.43754 -1.21168,-0.21185 -3.52459,0.18841 -0.91716,0.74634 -0.81765,-0.4462 -0.9568,0.77606 -2.39821,-0.17058 -0.61512,-1.41361 -2.00477,0.35108 -0.65994,0.9469 -1.29437,-0.0894 -0.92579,1.65947 -1.43882,-0.25354 -1.40784,0.62987 -0.8095,-0.60337 -0.32953,-1.0228 -1.17456,-0.9347 0.43987,-1.8703 -1.04414,-1.24386 -0.40255,-1.08912 -1.56544,-0.76325 -1.40133,0.50416 -0.90961,1.34524 -2.20765,-0.16221 -1.25207,0.57382 -1.4691,1.82415 -0.001,1.51199 -0.63893,0.53834 -0.62799,-1.16219 -0.76884,0.0914 -0.68493,-1.54276 -0.13162,-1.89596 -1.60421,-0.008 -0.89544,-0.4182 -1.23272,0.19673 -2.00055,1.01274 -0.19091,-1.48907 -1.69853,-1.14722 -0.25332,-1.01943 -1.48723,0.68933 -1.22751,1.58298 -3.36087,-0.0247 -1.90791,-1.53462 -1.27468,1.01383 -0.16325,1.69368 -1.29727,1.45385 -1.39683,-1.0707 1.10405,-2.1555 -0.73655,-0.53707 -4.15109,-1.00525 -1.03303,0.77267 -3.27496,-0.20989 0.39535,-1.74629 -1.75666,-0.0165 -0.36507,-0.33142 0.27839,-2.44459 -3.48758,-0.53445 -1.94463,0.66877 -6.51641,-2.56042 -3.73885,-0.10481 -0.088,-1.26395 -5.48541,-0.30921 -1.59654,-1.6467 -3.20167,-0.14371 -3.0805,-1.02024 -1.31056,0.22474 -8.09825,-0.77283 -1.81616,-1.08953 -0.8864,0.1493 -1.06408,-0.11082 -4.21951,1.07074 -3.43226,-0.12248 -1.23109,0.16532 -1.57838,-0.51183 -5.42575,0.008 -2.07899,1.79676 -0.64342,2.11318 -6.98847,3.65557 -0.75591,-0.15991 -0.43744,-1.15365 -1.46724,-0.44384 -2.3472,-0.4203 -1.76634,0.17281 -0.87735,0.71664 0.57637,2.16794 -0.31788,0.23772 -1.63201,-0.95524 -0.0166,-2.64682 0.67447,-1.22977 -0.0653,-1.70398 1.80187,-0.86421 -0.0312,-0.88341 -0.43162,-0.52338 0.7003,-1.73261 0.11813,-0.81371 1.23071,-1.64587 -0.13516,-1.83308 -1.04996,-1.87414 -1.223,0.008 -1.11973,-2.00328 -1.22627,0.0709 -1.02856,-0.80218 -1.04149,-0.55073 -1.81678,-0.33353 -0.27264,-0.64225 0.19757,-0.87314 -0.74946,-0.28565 2.83937,-3.21168 1.34769,-0.94756 1.70748,-2.00245 2.66309,-1.26656 3.17737,-0.86548 2.06163,0.0297 3.85829,-2.22095 0.18903,-4.95717 -0.33506,-1.0212 0.80952,-1.03286 0.0638,-1.24445 -0.19507,-0.66394 -0.74544,-1.19173 1.13384,-2.03528 -0.58906,-1.02719 -0.40847,-0.46381 -0.0433,-0.89833 -0.73236,-0.82934 -0.30801,-2.41946 -0.46148,-1.53536 -1.049,-2.72 -0.33537,-1.8861 -0.70274,-3.14996 0.24005,-2.44165 -0.56034,-0.84325 0.0597,-2.16176 -0.6999,-1.10058 0.17613,-1.32856 1.80549,0.6156 1.01683,0.75299 0.67624,-0.0534 0.98861,-0.31204 0.7218,0.0584 0.7369,-0.10814 1.45687,0.0915 1.37294,-0.37849 2.72404,0.5623 1.54136,-0.55452 1.28464,0.23585 0.78926,1.08296 0.25808,0.79816 0.93723,-0.183 1.03708,0.48663 3.54597,-1.71196 0.93742,-0.31435 0.68289,-0.28883 1.39068,0.0208 0.36962,0.60337 2.00453,-0.0514 0.40668,-1.22371 0.14433,-0.70633 -0.55288,-1.47646 0.65332,-0.47917 0.38129,-0.60119 2.10218,-0.1046 1.68082,0.93937 3.10409,-1.65258 0.67692,-1.7885 0.9612,0.22133 2.47522,0.20027 1.36225,-1.27539 0.88438,0.50099 0.45974,0.88335 0.73494,0.56845 -0.87089,0.59095 0.12664,0.50971 -0.56271,0.54177 0.78048,1.16904 2.28066,0.22831 0.87088,-0.59093 1.44205,0.1907 0.0165,-1.82627 0.65184,-0.78976 -0.86319,-1.04678 -0.67967,-0.1564 -0.16719,-1.20453 -2.01443,0.53963 -0.79654,-0.52925 -0.0709,-1.17921 1.71821,-1.46645 0.0399,-2.26627 1.03303,-0.77269 1.4711,-0.37498 0.4877,-2.05719 -0.70425,-1.16562 0.37272,-1.30631 -0.18675,-0.8274 0.22031,-1.31315 1.17262,-0.51443 0.31907,-1.74972 1.1823,-0.70298 0.63248,-0.41265 0.34047,-0.67773 3.59281,-0.0279 1.79864,-0.80131 1.5899,-1.94474 0.34754,-1.55945 1.10929,-0.76926 2.13885,0.75747 1.21558,-0.60697 1.49569,0.63411 0.58728,0.46736 0.78822,-0.46863 0.31911,-1.74974 0.8838,-0.84237 1.86193,-0.5465 0.63897,-0.53834 -0.70749,-1.10276 -1.29279,-0.12102 -1.34969,-0.50158 -1.54087,0.24589 -1.64815,-0.64097 -0.0503,-0.50625 0.89024,-0.9681 0.13745,-1.19086 1.07442,-0.83382 -0.22167,-0.89197 0.35983,-1.05487 1.36704,-1.32471 0.0657,-2.76913 1.01693,-0.4584 1.41299,0.75642 2.57392,-1.01855 0.67767,-1.29263 1.91687,-1.61504 1.74438,0.0749 0.95292,-0.26463 2.56824,1.81246 1.30799,-0.97162 0.99205,0.82281 3.72267,0.41901 0.71432,-1.22417 0.48015,-2.69132 2.749,-1.45172 0.0703,-1.11941 2.22641,-1.07552 0.68861,-1.41434 1.91817,0.0126 1.58852,-1.03929 z"
           id="path19"
           sodipodi:nodetypes="cccccccccccccccccccccccccccccccccccccccccccccccccccccccccccccccccccccccccccccccccccccccccccccccccccccccccccccccccccccccccccccccccccccccccccccccccccccccccccccccccccccccccccccccccccccccccccccccccccccccccccccccccccccccccccccccccccccccccccccccccccccccccccccccccccccccccccccccccccccccccccccccccccccccccccccccccccccccccccccccccccccccccccccccccccccccccccccccccccccccccccccccccccccccccccccccccccccccccccccccccccccccccccccccccccccccccccccccccccccccccccccccccc" /></g></g><path
       d="M 1176.21,847.34441 970.79643,1243.6383"
       stroke="#4472c4"
       stroke-width="13.75"
       stroke-miterlimit="8"
       fill="none"
       fill-rule="evenodd"
       id="path6"
       style="display:inline;stroke:#0b1f33;stroke-width:2;stroke-dasharray:8, 2;stroke-dashoffset:0;stroke-opacity:1"
       sodipodi:nodetypes="cc" /><path
       d="M 1254.2223,955.327 746.51336,1219.389"
       stroke="#4472c4"
       stroke-width="13.75"
       stroke-miterlimit="8"
       fill="none"
       fill-rule="evenodd"
       id="path6-20"
       style="display:inline;stroke:#0b1f33;stroke-width:2;stroke-dasharray:7.99997, 2;stroke-dashoffset:0;stroke-opacity:1"
       sodipodi:nodetypes="cc" /><path
       d="M 1279.843,1271.7223 959.24476,965.51614"
       stroke="#4472c4"
       stroke-width="13.75"
       stroke-miterlimit="8"
       fill="none"
       fill-rule="evenodd"
       id="path6-2"
       style="display:inline;stroke:#0b1f33;stroke-width:2;stroke-dasharray:8, 2;stroke-dashoffset:0;stroke-opacity:1"
       sodipodi:nodetypes="cc" /><path
       d="M 1182.3723,846.36205 733.91016,1078.7668"
       stroke="#4472c4"
       stroke-width="13.75"
       stroke-miterlimit="8"
       fill="none"
       fill-rule="evenodd"
       id="path6-2-6"
       style="display:inline;stroke:#0b1f33;stroke-width:3;stroke-dasharray:12, 3;stroke-dashoffset:0;stroke-opacity:1"
       sodipodi:nodetypes="cc" /><path
       d="M 1255.6362,957.76448 972.96788,1244.967"
       stroke="#4472c4"
       stroke-width="13.75"
       stroke-miterlimit="8"
       fill="none"
       fill-rule="evenodd"
       id="path6-2-6-6"
       style="display:inline;stroke:#0b1f33;stroke-width:5.98093;stroke-dasharray:none;stroke-dashoffset:0;stroke-opacity:1"
       sodipodi:nodetypes="cc" /><path
       d="m 961.90004,965.12364 8.38071,277.99626"
       stroke="#4472c4"
       stroke-width="13.75"
       stroke-miterlimit="8"
       fill="none"
       fill-rule="evenodd"
       id="path6-2-6-6-7"
       style="display:inline;stroke:#0b1f33;stroke-width:5.98093;stroke-dasharray:none;stroke-dashoffset:0;stroke-opacity:1"
       sodipodi:nodetypes="cc" /><path
       d="m 1254.8705,956.55694 -295.92947,8.96283"
       stroke="#4472c4"
       stroke-width="13.75"
       stroke-miterlimit="8"
       fill="none"
       fill-rule="evenodd"
       id="path6-2-6-6-7-7"
       style="display:inline;stroke:#0b1f33;stroke-width:5.98093;stroke-dasharray:none;stroke-dashoffset:0;stroke-opacity:1"
       sodipodi:nodetypes="cc" /><path
       d="m 727.2903,1050.9496 23.92945,193.236"
       stroke="#4472c4"
       stroke-width="13.75"
       stroke-miterlimit="8"
       fill="none"
       fill-rule="evenodd"
       id="path6-2-6-7"
       style="display:inline;stroke:#0b1f33;stroke-width:3;stroke-dasharray:12, 3;stroke-dashoffset:0;stroke-opacity:1" /><path
       d="m 1323.6046,1063.3006 -594.79136,14.3669"
       stroke="#4472c4"
       stroke-width="13.75"
       stroke-miterlimit="8"
       fill="none"
       fill-rule="evenodd"
       id="path6-2-6-7-4"
       style="display:inline;stroke:#0b1f33;stroke-width:2;stroke-dasharray:8, 2;stroke-dashoffset:0;stroke-opacity:1"
       sodipodi:nodetypes="cc" /><path
       d="m 1289.4882,1261.0577 39.8134,-206.6705"
       stroke="#4472c4"
       stroke-width="13.75"
       stroke-miterlimit="8"
       fill="none"
       fill-rule="evenodd"
       id="path6-2-9-2"
       style="display:inline;stroke:#0b1f33;stroke-width:3;stroke-dasharray:12, 3;stroke-dashoffset:0;stroke-opacity:1" /><path
       d="M 1329.3228,1065.6361 1171.618,840.07614"
       stroke="#4472c4"
       stroke-width="13.75"
       stroke-miterlimit="8"
       fill="none"
       fill-rule="evenodd"
       id="path6-2-9-2-1"
       style="display:inline;stroke:#0b1f33;stroke-width:3;stroke-dasharray:12, 3;stroke-dashoffset:0;stroke-opacity:1"
       sodipodi:nodetypes="cc" /><path
       d="m 741.77833,1224.3859 543.36517,50.7268"
       stroke="#4472c4"
       stroke-width="13.75"
       stroke-miterlimit="8"
       fill="none"
       fill-rule="evenodd"
       id="path6-2-9-2-0"
       style="display:inline;stroke:#0b1f33;stroke-width:3;stroke-dasharray:12, 3;stroke-dashoffset:0;stroke-opacity:1" /><circle
       style="display:inline;fill:none;fill-opacity:1;fill-rule:evenodd;stroke:#0b1f33;stroke-width:11.9619;stroke-dasharray:none;stroke-dashoffset:0;stroke-opacity:1"
       id="path38"
       cx="1027.0327"
       cy="1109.2363"
       r="303.80875" /><g
       id="g336-9-6-3-6-8"
       transform="matrix(15.823734,0,0,15.823734,1260.6117,1004.8171)"
       ns1:version="1.12.0"
       ns1:texconverter="pdflatex"
       ns1:pdfconverter="inkscape"
       ns1:text="$\\bigstar$"
       ns1:preamble="C:\Users\256bit.by\AppData\Roaming\inkscape\extensions\textext\default_packages.tex"
       ns1:scale="10.748021323776051"
       ns1:alignment="middle center"
       ns1:inkscapeversion="1.4.2"
       ns1:jacobian_sqrt="14.3307"
       style="fill:#d9a441;fill-opacity:1;stroke:#0b1f33;stroke-width:0.140952;stroke-dasharray:none;stroke-opacity:1"><defs
   id="defs2541-3-6-4"
   style="fill:#d9a441;fill-opacity:1;stroke:#d9a441;stroke-width:0;stroke-opacity:1" />
  <g
   fill-opacity="1"
   id="g2582-8-0-9-5-9-2-8-8"
   transform="matrix(0.96382904,0,0,0.96382904,-179.99868,-113.37258)"
   style="fill:#047857;fill-opacity:1;stroke:#0b1f33;stroke-width:0.140952;stroke-dasharray:none;stroke-opacity:1">
    <g
   transform="translate(148.712,134.765)"
   id="g4799-1-1-8-5-8-2-9-1"
   style="fill:#047857;fill-opacity:1;stroke:#0b1f33;stroke-width:0.140952;stroke-dasharray:none;stroke-opacity:1"><path
   d="m 7.9333104,-3.6787042 c 0.1047811,-0.091683 0.1047811,-0.091683 0.1047811,-0.1309763 0,-0.091683 -0.065488,-0.091683 -0.2226598,-0.091683 H 5.3923691 L 4.6327063,-6.2458407 c -0.039293,-0.1178787 -0.052391,-0.144074 -0.1178787,-0.144074 -0.065488,0 -0.091684,0.052391 -0.1178788,0.1702693 L 3.637286,-3.901364 H 1.2273211 c -0.1571717,0 -0.23575753,0 -0.23575753,0.091683 0,0.052391 0.026195,0.065488 0.10478113,0.1309763 l 2.0039382,1.4538381 -0.7596628,2.3444767 c 0,0.0130976 -0.039293,0.10478108 -0.039293,0.11787868 0,0 0,0.091684 0.091683,0.091684 0.013098,0 0.039293,0 0.1309764,-0.078586 L 4.5148276,-1.1901534 6.5187658,0.25058648 c 0.026195,0.039293 0.078586,0.078586 0.1178787,0.078586 0.091683,0 0.091683,-0.091684 0.091683,-0.091684 0,-0.0392929 -0.013098,-0.0916834 -0.026195,-0.11787868 L 5.9424698,-2.2248666 Z m 0,0"
   id="path1523-8-2-8-3-9-8-0-5"
   style="fill:#047857;fill-opacity:1;stroke:#0b1f33;stroke-width:0.118153;stroke-dasharray:none;stroke-opacity:1" />
      </g></g>
<g
   fill-opacity="1"
   id="g2582-8-0-9-5-9-2-8-8-6"
   transform="matrix(0.96382904,0,0,0.96382904,-181.09409,-122.52498)"
   style="fill:#047857;fill-opacity:1;stroke:#0b1f33;stroke-width:0.140952;stroke-dasharray:none;stroke-opacity:1">
    <g
   transform="translate(148.712,134.765)"
   id="g4799-1-1-8-5-8-2-9-1-1"
   style="fill:#047857;fill-opacity:1;stroke:#0b1f33;stroke-width:0.140952;stroke-dasharray:none;stroke-opacity:1"><path
   d="m 7.9333104,-3.6787042 c 0.1047811,-0.091683 0.1047811,-0.091683 0.1047811,-0.1309763 0,-0.091683 -0.065488,-0.091683 -0.2226598,-0.091683 H 5.3923691 L 4.6327063,-6.2458407 c -0.039293,-0.1178787 -0.052391,-0.144074 -0.1178787,-0.144074 -0.065488,0 -0.091684,0.052391 -0.1178788,0.1702693 L 3.637286,-3.901364 H 1.2273211 c -0.1571717,0 -0.23575753,0 -0.23575753,0.091683 0,0.052391 0.026195,0.065488 0.10478113,0.1309763 l 2.0039382,1.4538381 -0.7596628,2.3444767 c 0,0.0130976 -0.039293,0.10478108 -0.039293,0.11787868 0,0 0,0.091684 0.091683,0.091684 0.013098,0 0.039293,0 0.1309764,-0.078586 L 4.5148276,-1.1901534 6.5187658,0.25058648 c 0.026195,0.039293 0.078586,0.078586 0.1178787,0.078586 0.091683,0 0.091683,-0.091684 0.091683,-0.091684 0,-0.0392929 -0.013098,-0.0916834 -0.026195,-0.11787868 L 5.9424698,-2.2248666 Z m 0,0"
   id="path1523-8-2-8-3-9-8-0-5-2"
   style="fill:#047857;fill-opacity:1;stroke:#0b1f33;stroke-width:0.118153;stroke-dasharray:none;stroke-opacity:1" />
      </g></g><g
   fill-opacity="1"
   id="g2582-8-0-9-5-9-2-8-8-6-2"
   transform="matrix(0.96382904,0,0,0.96382904,-153.31623,-137.23261)"
   style="fill:#047857;fill-opacity:1;stroke:#0b1f33;stroke-width:0.140952;stroke-dasharray:none;stroke-opacity:1">
    <g
   transform="translate(148.712,134.765)"
   id="g4799-1-1-8-5-8-2-9-1-1-5"
   style="fill:#047857;fill-opacity:1;stroke:#0b1f33;stroke-width:0.140952;stroke-dasharray:none;stroke-opacity:1"><path
   d="m 7.9333104,-3.6787042 c 0.1047811,-0.091683 0.1047811,-0.091683 0.1047811,-0.1309763 0,-0.091683 -0.065488,-0.091683 -0.2226598,-0.091683 H 5.3923691 L 4.6327063,-6.2458407 c -0.039293,-0.1178787 -0.052391,-0.144074 -0.1178787,-0.144074 -0.065488,0 -0.091684,0.052391 -0.1178788,0.1702693 L 3.637286,-3.901364 H 1.2273211 c -0.1571717,0 -0.23575753,0 -0.23575753,0.091683 0,0.052391 0.026195,0.065488 0.10478113,0.1309763 l 2.0039382,1.4538381 -0.7596628,2.3444767 c 0,0.0130976 -0.039293,0.10478108 -0.039293,0.11787868 0,0 0,0.091684 0.091683,0.091684 0.013098,0 0.039293,0 0.1309764,-0.078586 L 4.5148276,-1.1901534 6.5187658,0.25058648 c 0.026195,0.039293 0.078586,0.078586 0.1178787,0.078586 0.091683,0 0.091683,-0.091684 0.091683,-0.091684 0,-0.0392929 -0.013098,-0.0916834 -0.026195,-0.11787868 L 5.9424698,-2.2248666 Z m 0,0"
   id="path1523-8-2-8-3-9-8-0-5-2-8"
   style="fill:#047857;fill-opacity:1;stroke:#0b1f33;stroke-width:0.118153;stroke-dasharray:none;stroke-opacity:1" />
      </g></g><g
   fill-opacity="1"
   id="g2582-8-0-9-5-9-2-8-8-6-2-2"
   transform="matrix(0.96382904,0,0,0.96382904,-143.39314,-123.56309)"
   style="fill:#047857;fill-opacity:1;stroke:#0b1f33;stroke-width:0.140952;stroke-dasharray:none;stroke-opacity:1">
    <g
   transform="translate(148.712,134.765)"
   id="g4799-1-1-8-5-8-2-9-1-1-5-6"
   style="fill:#047857;fill-opacity:1;stroke:#0b1f33;stroke-width:0.140952;stroke-dasharray:none;stroke-opacity:1"><path
   d="m 7.9333104,-3.6787042 c 0.1047811,-0.091683 0.1047811,-0.091683 0.1047811,-0.1309763 0,-0.091683 -0.065488,-0.091683 -0.2226598,-0.091683 H 5.3923691 L 4.6327063,-6.2458407 c -0.039293,-0.1178787 -0.052391,-0.144074 -0.1178787,-0.144074 -0.065488,0 -0.091684,0.052391 -0.1178788,0.1702693 L 3.637286,-3.901364 H 1.2273211 c -0.1571717,0 -0.23575753,0 -0.23575753,0.091683 0,0.052391 0.026195,0.065488 0.10478113,0.1309763 l 2.0039382,1.4538381 -0.7596628,2.3444767 c 0,0.0130976 -0.039293,0.10478108 -0.039293,0.11787868 0,0 0,0.091684 0.091683,0.091684 0.013098,0 0.039293,0 0.1309764,-0.078586 L 4.5148276,-1.1901534 6.5187658,0.25058648 c 0.026195,0.039293 0.078586,0.078586 0.1178787,0.078586 0.091683,0 0.091683,-0.091684 0.091683,-0.091684 0,-0.0392929 -0.013098,-0.0916834 -0.026195,-0.11787868 L 5.9424698,-2.2248666 Z m 0,0"
   id="path1523-8-2-8-3-9-8-0-5-2-8-5"
   style="fill:#047857;fill-opacity:1;stroke:#0b1f33;stroke-width:0.118153;stroke-dasharray:none;stroke-opacity:1" />
      </g></g><g
   fill-opacity="1"
   id="g2582-8-0-9-5-9-2-8-8-6-2-2-9"
   transform="matrix(0.96382904,0,0,0.96382904,-146.28522,-110.5637)"
   style="fill:#047857;fill-opacity:1;stroke:#0b1f33;stroke-width:0.140952;stroke-dasharray:none;stroke-opacity:1">
    <g
   transform="translate(148.712,134.765)"
   id="g4799-1-1-8-5-8-2-9-1-1-5-6-2"
   style="fill:#047857;fill-opacity:1;stroke:#0b1f33;stroke-width:0.140952;stroke-dasharray:none;stroke-opacity:1"><path
   d="m 7.9333104,-3.6787042 c 0.1047811,-0.091683 0.1047811,-0.091683 0.1047811,-0.1309763 0,-0.091683 -0.065488,-0.091683 -0.2226598,-0.091683 H 5.3923691 L 4.6327063,-6.2458407 c -0.039293,-0.1178787 -0.052391,-0.144074 -0.1178787,-0.144074 -0.065488,0 -0.091684,0.052391 -0.1178788,0.1702693 L 3.637286,-3.901364 H 1.2273211 c -0.1571717,0 -0.23575753,0 -0.23575753,0.091683 0,0.052391 0.026195,0.065488 0.10478113,0.1309763 l 2.0039382,1.4538381 -0.7596628,2.3444767 c 0,0.0130976 -0.039293,0.10478108 -0.039293,0.11787868 0,0 0,0.091684 0.091683,0.091684 0.013098,0 0.039293,0 0.1309764,-0.078586 L 4.5148276,-1.1901534 6.5187658,0.25058648 c 0.026195,0.039293 0.078586,0.078586 0.1178787,0.078586 0.091683,0 0.091683,-0.091684 0.091683,-0.091684 0,-0.0392929 -0.013098,-0.0916834 -0.026195,-0.11787868 L 5.9424698,-2.2248666 Z m 0,0"
   id="path1523-8-2-8-3-9-8-0-5-2-8-5-4"
   style="fill:#047857;fill-opacity:1;stroke:#0b1f33;stroke-width:0.118153;stroke-dasharray:none;stroke-opacity:1" />
      </g></g></g></g><g
     id="g7332"
     transform="matrix(109.718,-55.043,55.043,109.718,151.06484,263.34486)"
     ns1:version="1.12.0"
     ns1:texconverter="pdflatex"
     ns1:pdfconverter="inkscape"
     ns1:text="$\\oint$"
     ns1:preamble="C:\Users\256bit.by\AppData\Roaming\inkscape\extensions\textext\default_packages.tex"
     ns1:scale="153.92823362515432"
     ns1:alignment="middle center"
     ns1:inkscapeversion="1.4.2"
     ns1:jacobian_sqrt="122.75085080356878"
     style="fill:#047857;fill-opacity:1;stroke:#0b1f33;stroke-width:0.0244398;stroke-dasharray:none;stroke-opacity:1"><defs
   id="defs9121"
   style="fill:#d9a441;fill-opacity:1;stroke:#d9a441;stroke-width:0;stroke-opacity:1" />
  <g
   fill-opacity="1"
   id="g644"
   transform="translate(-149.275,-126.739)"
   style="fill:#047857;fill-opacity:1;stroke:#0b1f33;stroke-width:0.0244398;stroke-dasharray:none;stroke-opacity:1">
    <g
   transform="translate(148.712,126.739)"
   id="g8088"
   style="fill:#047857;fill-opacity:1;stroke:#0b1f33;stroke-width:0.0244398;stroke-dasharray:none;stroke-opacity:1"><path
   d="M 3.578125,7.390625 C 4.671875,7.234375 5.25,6.359375 5.25,5.546875 5.25,4.8125 4.796875,4.046875 3.953125,3.765625 4.015625,2.71875 4.0625,2.359375 4.0625,2.15625 c 0.109375,-1.09375 0.25,-1.9375 0.921875,-1.9375 0.09375,0 0.40625,0.015625 0.625,0.203125 C 5.328125,0.46875 5.25,0.703125 5.25,0.84375 5.25,1.125 5.46875,1.25 5.65625,1.25 5.859375,1.25 6.078125,1.125 6.078125,0.828125 6.078125,0.34375 5.578125,0 4.96875,0 4.171875,0 3.796875,0.671875 3.59375,1.25 3.46875,1.640625 3.40625,1.953125 3.1875,3.671875 2.109375,3.84375 1.53125,4.71875 1.53125,5.53125 c 0,0.734375 0.4375,1.5 1.296875,1.78125 C 2.75,8.328125 2.71875,8.65625 2.703125,8.859375 c -0.09375,1.078125 -0.28125,2 -1.046875,2 -0.125,0 -0.4375,-0.03125 -0.640625,-0.21875 0.296875,-0.03125 0.375,-0.265625 0.375,-0.40625 0,-0.28125 -0.21875,-0.421875 -0.40625,-0.421875 -0.203125,0 -0.421875,0.140625 -0.421875,0.4375 0,0.46875 0.5,0.828125 1.09375,0.828125 C 2.4375,11.078125 2.875,10.484375 3.125,9.875 3.34375,9.3125 3.421875,8.75 3.578125,7.390625 Z m -0.734375,-0.5 C 2.375,6.703125 1.921875,6.21875 1.921875,5.53125 c 0,-0.671875 0.5,-1.296875 1.203125,-1.4375 z M 3.921875,4.171875 C 4.4375,4.390625 4.84375,4.90625 4.84375,5.53125 c 0,0.71875 -0.515625,1.3125 -1.203125,1.453125 z m 0,0"
   id="path1468"
   style="fill:#047857;fill-opacity:1;stroke:#0b1f33;stroke-width:0.0244398;stroke-dasharray:none;stroke-opacity:1" />
      </g></g>
</g></svg>
